<?xml version="1.0" standalone="no"?>
<!DOCTYPE svg PUBLIC "-//W3C//DTD SVG 20010904//EN"
 "http://www.w3.org/TR/2001/REC-SVG-20010904/DTD/svg10.dtd">
<svg version="1.0" xmlns="http://www.w3.org/2000/svg"
 width="325.000000pt" height="325.000000pt" viewBox="0 0 325.000000 325.000000"
 preserveAspectRatio="xMidYMid meet">
<metadata>
Created by potrace 1.11, written by Peter Selinger 2001-2013
</metadata>
<g transform="translate(0.000000,325.000000) scale(0.100000,-0.100000)"
fill="#000000" stroke="none">
<path d="M2487 3244 c-1 -1 -30 -4 -63 -8 -189 -20 -392 -141 -503 -301 -62
-89 -111 -207 -127 -305 -4 -25 -8 -226 -8 -447 l-2 -403 396 0 c437 0 489 5
609 53 170 69 301 190 380 352 58 118 75 192 75 325 0 178 -42 305 -149 448
-86 114 -259 232 -380 258 -90 20 -219 35 -228 28z"/>
<path d="M660 2763 c-595 -70 -862 -772 -464 -1221 80 -91 251 -195 354 -216
14 -3 47 -9 73 -14 60 -12 205 -8 272 7 49 12 171 57 190 71 6 4 33 20 60 35
66 37 143 82 180 104 17 10 80 46 140 81 61 35 145 83 188 108 42 24 77 49 77
56 0 6 -9 22 -20 36 -11 14 -20 28 -20 32 0 4 -37 71 -83 150 -46 79 -126 217
-178 308 -80 139 -107 177 -179 250 -71 72 -100 93 -180 132 -94 47 -138 61
-215 74 -46 7 -158 11 -195 7z"/>
<path d="M1710 1622 c-35 -59 -71 -123 -82 -142 -11 -19 -44 -75 -73 -125 -29
-49 -63 -108 -75 -130 -12 -22 -42 -74 -66 -115 -73 -127 -97 -214 -100 -360
-2 -96 2 -142 17 -198 65 -252 255 -448 508 -524 86 -26 265 -32 353 -12 225
51 402 190 503 392 52 105 73 197 73 317 0 198 -65 367 -195 506 -65 70 -114
103 -329 228 -104 59 -229 132 -279 161 -49 29 -113 65 -142 81 l-51 29 -62
-108z"/>
</g>
</svg>
